<?xml version="1.0" encoding="utf-8"?>
<!-- Generator: Adobe Illustrator 16.0.0, SVG Export Plug-In . SVG Version: 6.00 Build 0)  -->
<!DOCTYPE svg PUBLIC "-//W3C//DTD SVG 1.1//EN" "http://www.w3.org/Graphics/SVG/1.1/DTD/svg11.dtd">
<svg version="1.1" id="圖層_1" xmlns="http://www.w3.org/2000/svg" xmlns:xlink="http://www.w3.org/1999/xlink" x="0px" y="0px"
	 width="10px" height="10px" viewBox="0 0 10 10" enable-background="new 0 0 10 10" xml:space="preserve">
<g id="magnify">
	<g>
		<path fill-rule="evenodd" clip-rule="evenodd" fill="#969696" d="M9.391,8.855L6.51,5.981c0.459-0.578,0.737-1.308,0.737-2.104
			c0-1.865-1.511-3.376-3.375-3.376C2.011,0.5,0.5,2.012,0.5,3.876c0,1.867,1.511,3.377,3.373,3.377
			c0.795,0,1.525-0.276,2.102-0.736l2.879,2.874c0.147,0.146,0.386,0.145,0.534-0.004C9.536,9.24,9.538,9.002,9.391,8.855z
			 M3.873,6.504c-1.448,0-2.624-1.177-2.624-2.627c0-1.451,1.176-2.627,2.624-2.627c1.45,0,2.624,1.177,2.624,2.627
			C6.496,5.327,5.323,6.504,3.873,6.504z"/>
	</g>
</g>
</svg>
