<?xml version="1.0" encoding="utf-8"?>
<!-- Generator: Adobe Illustrator 16.0.0, SVG Export Plug-In . SVG Version: 6.00 Build 0)  -->
<!DOCTYPE svg PUBLIC "-//W3C//DTD SVG 1.1//EN" "http://www.w3.org/Graphics/SVG/1.1/DTD/svg11.dtd">
<svg version="1.1" id="圖層_1" xmlns="http://www.w3.org/2000/svg" xmlns:xlink="http://www.w3.org/1999/xlink" x="0px" y="0px"
	 width="152px" height="32px" viewBox="0 0 152 32" enable-background="new 0 0 152 32" xml:space="preserve">
<g>
	<path opacity="0.8" fill="#323232" stroke="#323232" stroke-width="2" stroke-miterlimit="10" d="M151,26c0,2.762-2.238,5-5,5H6
		c-2.761,0-5-2.238-5-5V6c0-2.761,2.239-5,5-5h140c2.762,0,5,2.239,5,5V26z"/>
	<g opacity="0.8">
		<g>
			<path fill="#FFFFFF" d="M25.096,21.003c0.204,0,0.251-0.168,0.264-1.632c0.156,0.121,0.444,0.229,0.636,0.288
				c-0.06,1.655-0.24,2.039-0.828,2.039H24.52c-0.636,0-0.792-0.216-0.792-0.972v-2.794h-0.792
				c-0.168,1.751-0.636,3.118-2.146,3.909c-0.096-0.191-0.324-0.479-0.492-0.6l0.167-0.084h-3.79v0.66h-0.624v-4.113
				c-0.228,0.311-0.443,0.587-0.684,0.839c-0.072-0.12-0.276-0.407-0.408-0.528c0.66-0.659,1.271-1.594,1.643-2.554l0.576,0.168
				c-0.096,0.251-0.216,0.492-0.335,0.743h1.535c-0.108-0.228-0.252-0.456-0.396-0.66l0.528-0.228
				c0.204,0.264,0.408,0.611,0.528,0.887h1.595v0.588h-1.739v0.779h1.487v0.564h-1.487v0.791h1.547v0.563h-1.547v0.911h1.715v0.504
				c1.127-0.684,1.463-1.774,1.607-3.142h-1.08v-6.597h4.414v6.597h-1.139v2.794c0,0.24,0.024,0.276,0.204,0.276H25.096z
				 M16.784,12.284h-1.751v-0.612h1.751v-0.78h0.66v2.135h-0.66V12.284z M15.525,13.267h2.146v2.087h-2.146V13.267z M16.052,14.85
				h1.08v-1.08h-1.08V14.85z M18.247,16.961h-1.571v0.779h1.571V16.961z M18.247,18.305h-1.571v0.791h1.571V18.305z M16.676,20.57
				h1.571v-0.911h-1.571V20.57z M20.526,15.354h-2.171v-2.087h2.171V15.354z M19.279,13.039h-0.66v-2.147h0.66v0.768h1.631v0.624
				h-1.631V13.039z M19.986,13.771h-1.115v1.08h1.115V13.771z M21.821,13.327h3.01v-1.26h-3.01V13.327z M21.821,15.27h3.01v-1.271
				h-3.01V15.27z M21.821,17.213h3.01V15.93h-3.01V17.213z"/>
			<path fill="#FFFFFF" d="M31.675,15.306c-0.168,0.3-0.36,0.6-0.54,0.888h6.057v5.648H36.4v-0.479h-5.361v0.479h-0.768v-4.533
				c-0.624,0.695-1.343,1.308-2.17,1.811c-0.108-0.168-0.348-0.467-0.504-0.611c1.355-0.803,2.398-1.931,3.166-3.202h-2.89v-0.671
				h3.262c0.168-0.3,0.3-0.636,0.432-0.948h-2.806v-0.647h3.058c0.096-0.3,0.18-0.6,0.264-0.899
				c-1.139,0.048-2.279,0.084-3.334,0.084c-0.012-0.18-0.084-0.444-0.168-0.624c2.902-0.024,6.561-0.216,8.443-0.611l0.516,0.587
				c-1.187,0.252-2.842,0.408-4.582,0.516c-0.084,0.324-0.18,0.635-0.288,0.947h5.013v0.647h-5.253
				c-0.12,0.312-0.264,0.636-0.42,0.948h6.369v0.671H31.675z M36.4,16.841h-5.361v0.876H36.4V16.841z M36.4,18.292h-5.361v0.899
				H36.4V18.292z M36.4,20.715v-0.959h-5.361v0.959H36.4z"/>
			<path fill="#FFFFFF" d="M42.332,19.371c-0.3,0.708-0.828,1.464-1.307,1.955c-0.12-0.107-0.396-0.336-0.564-0.443
				c0.48-0.443,0.924-1.067,1.188-1.703L42.332,19.371z M46.806,15.989h-6.309v-0.66h2.818c-0.096-0.204-0.216-0.408-0.3-0.576
				l0.72-0.18c0.144,0.216,0.312,0.504,0.42,0.755h2.65V15.989z M46.398,14.526h-5.301v-3.202h5.301V14.526z M44.083,18.867v2.063
				c0,0.396-0.072,0.575-0.36,0.684c-0.276,0.12-0.719,0.12-1.391,0.12c-0.036-0.204-0.144-0.468-0.24-0.66
				c0.516,0.012,0.923,0.012,1.043,0c0.144,0,0.168-0.047,0.168-0.155v-2.052h-2.123v-2.23h5.085v2.23H44.083z M45.606,11.875
				h-3.754v0.768h3.754V11.875z M45.606,13.183h-3.754v0.779h3.754V13.183z M41.924,18.292h3.562v-1.079h-3.562V18.292z
				 M45.331,19.156c0.444,0.539,0.923,1.246,1.151,1.703l-0.612,0.335c-0.216-0.468-0.672-1.211-1.091-1.763L45.331,19.156z
				 M51.231,18.1c-0.935,1.512-2.53,2.844-4.197,3.646c-0.132-0.191-0.372-0.443-0.552-0.6c1.595-0.707,3.178-1.967,4.018-3.322
				L51.231,18.1z M50.583,11.444c-0.804,1.067-2.051,2.135-3.154,2.807c-0.144-0.168-0.372-0.408-0.587-0.552
				c1.055-0.588,2.303-1.607,2.998-2.555L50.583,11.444z M50.979,14.658c-0.875,1.151-2.291,2.267-3.562,2.963
				c-0.132-0.168-0.36-0.408-0.564-0.553c1.211-0.611,2.639-1.679,3.394-2.722L50.979,14.658z"/>
			<path fill="#FFFFFF" d="M61.504,16.673v5.146h-0.827v-4.354h-5.146c-0.18,1.583-0.647,3.105-1.775,4.389
				c-0.132-0.18-0.408-0.467-0.6-0.575c1.523-1.774,1.691-4.042,1.691-6.225V11h0.804v2.891h4.617v-2.986h0.804v3.778h-5.421v0.372
				c0,0.54-0.012,1.08-0.048,1.619H61.504z"/>
		</g>
	</g>
	<polygon fill="#FFFFFF" points="127.463,10 137.463,16 127.463,22 	"/>
</g>
</svg>
