<?xml version="1.0" encoding="utf-8"?>
<!-- Generator: Adobe Illustrator 16.0.0, SVG Export Plug-In . SVG Version: 6.00 Build 0)  -->
<!DOCTYPE svg PUBLIC "-//W3C//DTD SVG 1.1//EN" "http://www.w3.org/Graphics/SVG/1.1/DTD/svg11.dtd">
<svg version="1.1" id="圖層_1" xmlns="http://www.w3.org/2000/svg" xmlns:xlink="http://www.w3.org/1999/xlink" x="0px" y="0px"
	 width="12px" height="12px" viewBox="0 0 12 12" enable-background="new 0 0 12 12" xml:space="preserve">
<path fill="#FFFFFF" d="M9.57,3.749c0-1.934-1.686-3.5-3.617-3.5c-1.932,0-3.523,1.566-3.523,3.5c0,1.605,1.172,3.209,2.797,3.442
	v0.937h-1v1h1v0.894h-1v1h1v0.729H6.79V7.239C8.32,7.036,9.57,5.31,9.57,3.749z M6.028,6.249c-1.381,0-2.5-1.119-2.5-2.5
	s1.119-2.5,2.5-2.5c1.381,0,2.5,1.119,2.5,2.5S7.409,6.249,6.028,6.249z"/>
</svg>
