<?xml version="1.0" encoding="utf-8"?>
<!-- Generator: Adobe Illustrator 16.0.0, SVG Export Plug-In . SVG Version: 6.00 Build 0)  -->
<!DOCTYPE svg PUBLIC "-//W3C//DTD SVG 1.1//EN" "http://www.w3.org/Graphics/SVG/1.1/DTD/svg11.dtd">
<svg version="1.1" id="圖層_1" xmlns="http://www.w3.org/2000/svg" xmlns:xlink="http://www.w3.org/1999/xlink" x="0px" y="0px"
	 width="25px" height="25px" viewBox="0 0 25 25" enable-background="new 0 0 25 25" xml:space="preserve">
<g id="star_3_">
	<g>
		<path fill-rule="evenodd" clip-rule="evenodd" fill="#002D5A" d="M22.426,9.956c-0.174-0.516-0.617-0.893-1.152-0.975
			l-5.205-0.799l-2.262-4.848C13.568,2.826,13.059,2.5,12.5,2.5c-0.561,0-1.07,0.326-1.309,0.835L8.93,8.183L3.726,8.981
			C3.192,9.063,2.747,9.44,2.575,9.956c-0.172,0.517-0.042,1.086,0.336,1.475l3.813,3.93l-0.885,5.453
			c-0.089,0.549,0.142,1.1,0.593,1.421C6.68,22.41,6.972,22.5,7.264,22.5c0.24,0,0.48-0.061,0.699-0.182l4.537-2.521l4.537,2.521
			c0.219,0.121,0.459,0.182,0.699,0.182c0.291,0,0.582-0.09,0.832-0.266c0.451-0.321,0.682-0.872,0.592-1.421l-0.885-5.453
			l3.814-3.93C22.467,11.042,22.596,10.472,22.426,9.956z M17.113,14.303c-0.313,0.32-0.453,0.772-0.381,1.218l0.859,5.318
			L13.18,18.38c-0.212-0.118-0.445-0.177-0.681-0.177c-0.232,0-0.467,0.06-0.68,0.177l-4.412,2.459l0.861-5.318
			c0.072-0.445-0.07-0.897-0.381-1.218l-3.709-3.835l5.061-0.78c0.463-0.071,0.861-0.371,1.06-0.798L12.5,4.161l2.201,4.729
			c0.199,0.428,0.596,0.727,1.059,0.799l5.063,0.779L17.113,14.303z"/>
	</g>
</g>
</svg>
