<?xml version="1.0" encoding="utf-8"?>
<!-- Generator: Adobe Illustrator 16.0.0, SVG Export Plug-In . SVG Version: 6.00 Build 0)  -->
<!DOCTYPE svg PUBLIC "-//W3C//DTD SVG 1.1//EN" "http://www.w3.org/Graphics/SVG/1.1/DTD/svg11.dtd">
<svg version="1.1" id="圖層_1" xmlns="http://www.w3.org/2000/svg" xmlns:xlink="http://www.w3.org/1999/xlink" x="0px" y="0px"
	 width="12px" height="12px" viewBox="0 0 12 12" enable-background="new 0 0 12 12" xml:space="preserve">
<g>
	<path fill-rule="evenodd" clip-rule="evenodd" d="M9.552,8.125h-7c-1.104,0-2.302,1.203-2.302,2.309v0.691h1v-0.691
		c0-0.553,0.749-1.309,1.302-1.309h7c0.553,0,1.198,0.756,1.198,1.309v0.691h1v-0.691C11.75,9.328,10.656,8.125,9.552,8.125z"/>
	<path fill-rule="evenodd" clip-rule="evenodd" d="M6.052,7.875c1.934,0,3.5-1.567,3.5-3.5c0-1.932-1.566-3.5-3.5-3.5
		s-3.5,1.568-3.5,3.5C2.552,6.308,4.118,7.875,6.052,7.875z M6.052,1.875c1.381,0,2.5,1.119,2.5,2.5s-1.119,2.5-2.5,2.5
		s-2.5-1.119-2.5-2.5S4.671,1.875,6.052,1.875z"/>
</g>
</svg>
