<?xml version="1.0" encoding="utf-8"?>
<!-- Generator: Adobe Illustrator 16.0.0, SVG Export Plug-In . SVG Version: 6.00 Build 0)  -->
<!DOCTYPE svg PUBLIC "-//W3C//DTD SVG 1.1//EN" "http://www.w3.org/Graphics/SVG/1.1/DTD/svg11.dtd">
<svg version="1.1" id="圖層_1" xmlns="http://www.w3.org/2000/svg" xmlns:xlink="http://www.w3.org/1999/xlink" x="0px" y="0px"
	 width="47px" height="47px" viewBox="0 0 47 47" enable-background="new 0 0 47 47" xml:space="preserve">
<path fill="none" stroke="#323232" stroke-width="2" stroke-linejoin="round" stroke-miterlimit="10" d="M44.5,38.217h-0.75v-2.264
	c0-0.833-0.672-1.51-1.5-1.51H40V20.859h1.5c0.828,0,1.5-0.678,1.5-1.51v-2.265c0-0.833-0.672-1.509-1.5-1.509h-0.75V14.82
	c0-0.832-0.672-1.509-1.5-1.509L23.5,3.5L7.75,13.312c-0.827,0-1.5,0.677-1.5,1.509v0.756H5.5c-0.827,0-1.5,0.676-1.5,1.509v2.265
	c0,0.832,0.673,1.51,1.5,1.51H7v13.584H4.75c-0.827,0-1.5,0.677-1.5,1.51v2.264H2.5c-0.827,0-1.5,0.678-1.5,1.51v2.265
	C1,42.823,1.673,43.5,2.5,43.5h42c0.828,0,1.5-0.677,1.5-1.509v-2.265C46,38.895,45.328,38.217,44.5,38.217z"/>
<ellipse fill="none" stroke="#323232" stroke-width="2" stroke-linejoin="round" stroke-miterlimit="10" cx="23.5" cy="11.802" rx="2.25" ry="2.264"/>
<line fill="none" stroke="#323232" stroke-width="2" stroke-linejoin="round" stroke-miterlimit="10" x1="6.25" y1="15.576" x2="10" y2="15.576"/>
<line fill="none" stroke="#323232" stroke-width="2" stroke-linejoin="round" stroke-miterlimit="10" x1="40.75" y1="15.576" x2="37" y2="15.576"/>
<line fill="none" stroke="#323232" stroke-width="2" stroke-linejoin="round" stroke-miterlimit="10" x1="3.25" y1="38.217" x2="5.5" y2="38.217"/>
<line fill="none" stroke="#323232" stroke-width="2" stroke-linejoin="round" stroke-miterlimit="10" x1="43.75" y1="38.217" x2="41.5" y2="38.217"/>
<line fill="none" stroke="#323232" stroke-width="2" stroke-linejoin="round" stroke-miterlimit="10" x1="7.75" y1="38.217" x2="39.25" y2="38.217"/>
<rect x="10.75" y="20.859" fill="none" stroke="#323232" stroke-width="2" stroke-linejoin="round" stroke-miterlimit="10" width="3" height="13.584"/>
<rect x="18.25" y="20.859" fill="none" stroke="#323232" stroke-width="2" stroke-linejoin="round" stroke-miterlimit="10" width="3" height="13.584"/>
<rect x="25.75" y="20.859" fill="none" stroke="#323232" stroke-width="2" stroke-linejoin="round" stroke-miterlimit="10" width="3" height="13.584"/>
<rect x="33.25" y="20.859" fill="none" stroke="#323232" stroke-width="2" stroke-linejoin="round" stroke-miterlimit="10" width="3" height="13.584"/>
</svg>
