<?xml version="1.0" encoding="utf-8"?>
<!-- Generator: Adobe Illustrator 16.0.0, SVG Export Plug-In . SVG Version: 6.00 Build 0)  -->
<!DOCTYPE svg PUBLIC "-//W3C//DTD SVG 1.1//EN" "http://www.w3.org/Graphics/SVG/1.1/DTD/svg11.dtd">
<svg version="1.1" id="圖層_1" xmlns="http://www.w3.org/2000/svg" xmlns:xlink="http://www.w3.org/1999/xlink" x="0px" y="0px"
	 width="47px" height="47px" viewBox="0 0 47 47" enable-background="new 0 0 47 47" xml:space="preserve">
<g>
	<circle fill="none" stroke="#323232" stroke-width="2" stroke-miterlimit="10" cx="23.5" cy="23.5" r="20"/>
	<path fill="none" stroke="#323232" stroke-width="2" stroke-miterlimit="10" d="M23.5,4.145c0,0-0.645,0.646-1.29,1.291
		c-0.646,0.645-1.935,0.645-1.29,1.29s0.645,1.29,0.645,1.29l-0.645,0.646c0,0,0,0.646-1.291,1.29c-1.29,0.646-1.29,0-1.935,0.646
		c-0.646,0.646-0.646,0.646-1.291,0.646c-0.645,0-0.645,0.645-1.29,0.645s0-2.58,0-2.58l1.29-0.646l1.291-0.646h0.645
		c0,0,0-1.29-0.645-1.29c-0.646,0-0.646,0-0.646,0s0-0.646-0.646-1.29C15.758,4.79,15.758,4.79,15.758,4.79"/>
	<path fill="none" stroke="#323232" stroke-width="2" stroke-miterlimit="10" d="M10.596,9.951l0.646,2.581l-0.646,1.29
		c0,0-1.289,0-1.289,1.29c0,1.291-0.646,0,0,1.291c0.645,1.29,0,1.935,0,1.935v0.646v1.291H7.372c0,0,0,0-0.646,0
		c-0.645,0-0.645,0.645-0.645,0.645s0-0.645-0.645,0c-0.646,0.646-0.646,0.646-0.646,1.29c0,0.646,0,0.646,0,0.646l-0.646,1.29
		L3.5,24.79"/>
	<path fill="none" stroke="#323232" stroke-width="2" stroke-miterlimit="10" d="M5.436,26.726c0.645,0.646,1.289,0.646,1.289,0.646
		s1.291-0.646,1.937,0c0.646,0.645,0.646,1.936,0.646,1.936v0.645c0,0,1.289,1.936,1.935,1.936s0.646,0,0.646,0
		s0.645,0.646,1.291,0.646c0.645,0,1.289,0.646,1.289,0.646s0.646,1.935,0,1.935c-0.645,0-0.645,0.646-0.645,0.646
		s0,2.58,1.29,3.226s2.581,1.291,3.226,1.936c0.646,0.646,1.29,0,1.29,0.646c0,0.645,1.291,1.936,3.871,1.936"/>
	<path fill="none" stroke="#323232" stroke-width="2" stroke-miterlimit="10" d="M43.5,25.436c0,0-1.936-1.936-1.936-1.291
		c0,0.646-0.645,1.291-0.645,2.581s-0.645,3.226-0.645,3.226l-1.291-1.29l0.645-3.226L37.693,23.5h-1.289
		c0,0,0.645,1.29,0.645,1.936c0,0.645,0,2.58,0,2.58s-1.291,2.581-1.291,3.227c0,0.645-0.645,0-1.289,1.29
		c-0.646,1.29-1.291,1.29-1.936,2.58c-0.646,1.291-1.936,1.937-2.582,3.226c-0.645,1.291-1.289,0.646-1.289,0
		c0-0.645-1.291-1.935-0.646-2.58c0.646-0.646,0-1.29,0.646-1.936c0.645-0.645,1.289-0.645,0.645-1.29s-1.291-0.646-1.291-1.29
		c0-0.646,0-2.581,0-2.581s-1.289-1.936-1.936-1.29c-0.645,0.645-1.289,1.29-1.289,1.29l-2.582-1.936L23.5,23.5l-0.645-2.581
		c0,0,1.936-1.936,1.936-2.581c0-0.645,0.645-1.289,0.645-1.289c-0.645-2.581-0.645-2.581-0.645-2.581s-0.646-0.646,0.645,0
		c1.291,0.645,1.936,1.936,1.936,1.936l1.936-0.646c0,0,0,0,0-0.646c0-0.645,0.645-1.935,1.291-1.935c0.645,0,1.289,0,1.289,0
		l2.582-2.581c0,0-2.582-0.646-2.582-1.29c0-0.646,0-1.291,0.646-1.936c0.645-0.646,1.936-0.646,1.936-0.646"/>
</g>
</svg>
