<?xml version="1.0" encoding="utf-8"?>
<!-- Generator: Adobe Illustrator 16.0.0, SVG Export Plug-In . SVG Version: 6.00 Build 0)  -->
<!DOCTYPE svg PUBLIC "-//W3C//DTD SVG 1.1//EN" "http://www.w3.org/Graphics/SVG/1.1/DTD/svg11.dtd">
<svg version="1.1" id="圖層_1" xmlns="http://www.w3.org/2000/svg" xmlns:xlink="http://www.w3.org/1999/xlink" x="0px" y="0px"
	 width="47px" height="47px" viewBox="0 0 47 47" enable-background="new 0 0 47 47" xml:space="preserve">
<g>
	<path fill="none" stroke="#323232" stroke-width="2" stroke-linejoin="round" stroke-miterlimit="10" d="M36.481,15.706h-11.93
		c-0.773,0-1.402-0.579-1.402-1.292V4.146"/>
	<path fill="none" stroke="#323232" stroke-width="2" stroke-linejoin="round" stroke-miterlimit="10" d="M36.481,32.533v9.676
		c0,0.713-0.629,1.291-1.403,1.291H4.904C4.13,43.5,3.5,42.922,3.5,42.209V4.791C3.5,4.079,4.13,3.5,4.904,3.5H23.09l13.392,11.667
		v9.624"/>
	
		<line fill="none" stroke="#323232" stroke-width="2" stroke-linejoin="round" stroke-miterlimit="10" x1="9.815" y1="14.467" x2="18.938" y2="14.467"/>
	
		<line fill="none" stroke="#323232" stroke-width="2" stroke-linejoin="round" stroke-miterlimit="10" x1="9.815" y1="20.92" x2="31.569" y2="20.92"/>
	
		<line fill="none" stroke="#323232" stroke-width="2" stroke-linejoin="round" stroke-miterlimit="10" x1="9.815" y1="25.436" x2="31.569" y2="25.436"/>
	
		<line fill="none" stroke="#323232" stroke-width="2" stroke-linejoin="round" stroke-miterlimit="10" x1="9.815" y1="31.242" x2="26.657" y2="31.242"/>
	
		<line fill="none" stroke="#323232" stroke-width="2" stroke-linejoin="round" stroke-miterlimit="10" x1="9.815" y1="35.113" x2="21.745" y2="35.113"/>
	<g>
		<path fill="none" stroke="#323232" stroke-width="2" stroke-linejoin="round" stroke-miterlimit="10" d="M29.023,39.045
			c-0.304,0.279-0.794,0.279-1.096,0.002l-0.568-1.998l-2.173-0.523c-0.303-0.277-0.303-0.73,0-1.008l14.248-13.099
			c0.305-0.279,0.794-0.279,1.097,0l2.742,2.519c0.302,0.277,0.302,0.729,0,1.008L29.023,39.045z"/>
		<polyline fill="none" stroke="#323232" stroke-width="2" stroke-linejoin="round" stroke-miterlimit="10" points="24.912,35.771 
			22.447,41.564 28.749,39.297 		"/>
		
			<line fill="none" stroke="#323232" stroke-width="2" stroke-linejoin="round" stroke-miterlimit="10" x1="37.792" y1="23.93" x2="41.627" y2="27.457"/>
		
			<line fill="none" stroke="#323232" stroke-width="2" stroke-linejoin="round" stroke-miterlimit="10" x1="27.359" y1="37.049" x2="39.64" y2="25.758"/>
	</g>
</g>
</svg>
