<?xml version="1.0" encoding="utf-8"?>
<!-- Generator: Adobe Illustrator 16.0.0, SVG Export Plug-In . SVG Version: 6.00 Build 0)  -->
<!DOCTYPE svg PUBLIC "-//W3C//DTD SVG 1.1//EN" "http://www.w3.org/Graphics/SVG/1.1/DTD/svg11.dtd">
<svg version="1.1" id="圖層_1" xmlns="http://www.w3.org/2000/svg" xmlns:xlink="http://www.w3.org/1999/xlink" x="0px" y="0px"
	 width="47px" height="47px" viewBox="0 0 47 47" enable-background="new 0 0 47 47" xml:space="preserve">
<g>
	<circle fill="none" stroke="#323232" stroke-width="2" stroke-miterlimit="10" cx="23.5" cy="23.5" r="20"/>
	<path fill="none" stroke="#323232" stroke-width="2" stroke-miterlimit="10" d="M23.5,6.726c9.265,0,16.775,7.511,16.775,16.774"/>
	<path fill="none" stroke="#323232" stroke-width="2" stroke-miterlimit="10" d="M23.5,40.274c-9.264,0-16.773-7.51-16.773-16.774"
		/>
	<path fill="none" stroke="#323232" stroke-width="2" stroke-linejoin="round" stroke-miterlimit="10" d="M25.879,32.533H13.154
		c0-4.843,4.414-5.166,5.732-5.813c0.824-0.403,1.992-1.095,1.992-1.742c0-0.351-0.142-0.563-0.254-0.625
		c-1.623-0.873-1.881-3.767-1.986-3.767c-0.547,0-0.927-1.327-0.927-2.219c0-0.703,0.216-0.689,0.6-0.91
		c-0.001-0.034-0.003-0.067-0.003-0.098c0-2.317,1.504-4.204,3.87-4.204s4.049,1.95,4.049,4.27c0,0.031-0.003,0.065-0.004,0.098
		c0.384,0.222,0.538,0.328,0.538,1.031c0,0.893-0.318,2.149-0.865,2.149c-0.105,0-0.52,2.749-2.07,3.666
		c-0.102,0.062-0.255,0.226-0.255,0.515c0,0.747,1.202,1.411,2.071,1.837c0.266,0.13,0.356,0.13,0.933,0.321"/>
	<polygon fill="none" stroke="#323232" stroke-width="2" stroke-miterlimit="10" points="35.338,35.593 35.338,32.377 
		38.479,32.378 38.479,28.524 35.287,28.524 35.287,25.332 31.434,25.332 31.434,28.524 28.24,28.524 28.24,32.377 31.383,32.378 
		31.383,35.593 	"/>
</g>
</svg>
