<?xml version="1.0" encoding="utf-8"?>
<!-- Generator: Adobe Illustrator 16.0.0, SVG Export Plug-In . SVG Version: 6.00 Build 0)  -->
<!DOCTYPE svg PUBLIC "-//W3C//DTD SVG 1.1//EN" "http://www.w3.org/Graphics/SVG/1.1/DTD/svg11.dtd">
<svg version="1.1" id="圖層_1" xmlns="http://www.w3.org/2000/svg" xmlns:xlink="http://www.w3.org/1999/xlink" x="0px" y="0px"
	 width="25px" height="25px" viewBox="0 0 25 25" enable-background="new 0 0 25 25" xml:space="preserve">
<g id="bell_2_">
	<g>
		<path fill-rule="evenodd" clip-rule="evenodd" fill="#002D5A" d="M21.666,15.834H20v-6.24c0-3.682-2.875-7.385-7.5-7.385
			S5,5.912,5,9.594v6.24H3.333c-0.46,0-0.833,0.373-0.833,0.832c0,0.461,0.373,0.834,0.833,0.834h18.333
			c0.461,0,0.834-0.373,0.834-0.834C22.5,16.207,22.127,15.834,21.666,15.834z M18.063,15.834H6.875V10
			c0-3.223,2.402-5.834,5.625-5.834c3.221,0,5.563,2.611,5.563,5.834V15.834z M13.682,20c0,0.461-0.442,0.834-1.182,0.834
			S11.317,20.461,11.317,20v-0.834H9.651V20c0,1.381,1.468,2.5,2.849,2.5s2.849-1.119,2.849-2.5v-0.834h-1.667V20z"/>
	</g>
</g>
</svg>
