<?xml version="1.0" encoding="utf-8"?>
<!-- Generator: Adobe Illustrator 16.0.0, SVG Export Plug-In . SVG Version: 6.00 Build 0)  -->
<!DOCTYPE svg PUBLIC "-//W3C//DTD SVG 1.1//EN" "http://www.w3.org/Graphics/SVG/1.1/DTD/svg11.dtd">
<svg version="1.1" id="圖層_1" xmlns="http://www.w3.org/2000/svg" xmlns:xlink="http://www.w3.org/1999/xlink" x="0px" y="0px"
	 width="25px" height="25px" viewBox="0 0 25 25" enable-background="new 0 0 25 25" xml:space="preserve">
<g id="users_2_">
	<g>
		<path fill-rule="evenodd" clip-rule="evenodd" fill="#002D5A" d="M19.096,15.834c-3.703,0-5.373,3.057-5.787,6.666h1.668
			c0.307-2.717,1.4-5.002,4.119-5.002c2.721,0,3.811,2.285,4.119,5.002h1.668C24.469,18.891,22.799,15.834,19.096,15.834z
			 M7.542,12.5c2.789,0,5.051-2.238,5.051-5c0-2.761-2.262-5-5.051-5c-2.791,0-5.052,2.239-5.052,5
			C2.491,10.262,4.751,12.5,7.542,12.5z M7.542,4.167c1.859,0,3.367,1.491,3.367,3.333c0,1.84-1.508,3.334-3.367,3.334
			c-1.86,0-3.368-1.494-3.368-3.334C4.174,5.658,5.682,4.167,7.542,4.167z M19.096,14.166c2.326,0,4.211-1.865,4.211-4.166
			c0-2.303-1.885-4.168-4.211-4.168S14.885,7.698,14.885,10C14.885,12.301,16.77,14.166,19.096,14.166z M19.096,7.5
			c1.395,0,2.525,1.119,2.525,2.5s-1.131,2.5-2.525,2.5S16.57,11.381,16.57,10S17.701,7.5,19.096,7.5z M7.542,14.166
			c-4.727,0-6.875,3.813-7.426,8.334h1.671c0.433-3.623,1.957-6.668,5.755-6.668c2.276,0,3.726,1.109,4.623,2.768
			c0.294-0.527,0.648-0.994,1.061-1.393C12.026,15.361,10.186,14.166,7.542,14.166z"/>
	</g>
</g>
</svg>
