<?xml version="1.0" encoding="utf-8"?>
<!-- Generator: Adobe Illustrator 16.0.0, SVG Export Plug-In . SVG Version: 6.00 Build 0)  -->
<!DOCTYPE svg PUBLIC "-//W3C//DTD SVG 1.1//EN" "http://www.w3.org/Graphics/SVG/1.1/DTD/svg11.dtd">
<svg version="1.1" id="圖層_1" xmlns="http://www.w3.org/2000/svg" xmlns:xlink="http://www.w3.org/1999/xlink" x="0px" y="0px"
	 width="47px" height="47px" viewBox="0 0 47 47" enable-background="new 0 0 47 47" xml:space="preserve">
<g>
	<path fill="none" stroke="#323232" stroke-width="2" stroke-linejoin="round" stroke-miterlimit="10" d="M38.667,40.1h-1.771
		c0.133-0.217,0.215-0.467,0.215-0.738V21.859v-3.689l-24.109-6.639l-1.556,3.688l16.13,4.172c1.197,2.877,3.08,13.333-6.797,13.333
		c-12.443,0-13.999,0-13.999,0c-0.859,0-0.778,0.66-0.778,1.475v0.738c0,0.814-0.081,1.475,0.778,1.475h10.11V40.1h-6.223
		c-0.858,0-2.332,4.426-2.332,4.426C8.336,45.34,9.031,46,9.891,46h29.555C40.303,46,41,45.34,41,44.525
		C41,44.525,39.525,40.1,38.667,40.1z"/>
	
		<line fill="none" stroke="#323232" stroke-width="2" stroke-linejoin="round" stroke-miterlimit="10" x1="15.335" y1="40.1" x2="21.557" y2="40.1"/>
	
		<line fill="none" stroke="#323232" stroke-width="2" stroke-linejoin="round" stroke-miterlimit="10" x1="15.335" y1="36.412" x2="18.445" y2="36.412"/>
	
		<line fill="none" stroke="#323232" stroke-width="2" stroke-linejoin="round" stroke-miterlimit="10" x1="34" y1="40.1" x2="37.889" y2="40.1"/>
	<g>
		<polyline fill="none" stroke="#323232" stroke-width="2" stroke-linejoin="round" stroke-miterlimit="10" points="13.915,15.755 
			13.344,17.769 14.848,18.152 14.241,20.289 14.992,20.48 13.983,24.043 16.988,24.809 17.996,21.246 18.748,21.439 19.354,19.3 
			20.855,19.683 21.344,17.962 		"/>
		<polyline fill="none" stroke="#323232" stroke-width="2" stroke-linejoin="round" stroke-miterlimit="10" points="22.4,14.234 
			24.287,7.572 25.789,7.955 27.001,3.681 16.484,1 15.274,5.275 16.777,5.658 14.96,12.07 		"/>
		
			<line fill="none" stroke="#323232" stroke-width="2" stroke-linejoin="round" stroke-miterlimit="10" x1="19.029" y1="6.232" x2="18.223" y2="9.082"/>
		
			<line fill="none" stroke="#323232" stroke-width="2" stroke-linejoin="round" stroke-miterlimit="10" x1="22.033" y1="6.998" x2="21.228" y2="9.847"/>
	</g>
</g>
</svg>
