<?xml version="1.0" encoding="utf-8"?>
<!-- Generator: Adobe Illustrator 16.0.0, SVG Export Plug-In . SVG Version: 6.00 Build 0)  -->
<!DOCTYPE svg PUBLIC "-//W3C//DTD SVG 1.1//EN" "http://www.w3.org/Graphics/SVG/1.1/DTD/svg11.dtd">
<svg version="1.1" id="圖層_1" xmlns="http://www.w3.org/2000/svg" xmlns:xlink="http://www.w3.org/1999/xlink" x="0px" y="0px"
	 width="47px" height="47px" viewBox="0 0 47 47" enable-background="new 0 0 47 47" xml:space="preserve">
<g>
	<g>
		<path fill="none" stroke="#323232" stroke-width="2" stroke-miterlimit="10" d="M27.639,31.671l2.703-0.005
			c0.229-0.001,0.417,0.179,0.417,0.399l-5.665,8.533c-0.151,0.224-0.242,0.4-0.415,0.4L23.885,41l0,0
			c-0.145,0.003-0.275-0.144-0.417-0.399l-5.774-8.518c0-0.221,0.188-0.398,0.417-0.399l2.44-0.003"/>
		<line fill="none" stroke="#323232" stroke-width="2" stroke-miterlimit="10" x1="21.318" y1="33.062" x2="21.318" y2="26.749"/>
		<line fill="none" stroke="#323232" stroke-width="2" stroke-miterlimit="10" x1="27.125" y1="33.062" x2="27.125" y2="26.749"/>
	</g>
	<g>
		<path fill="none" stroke="#323232" stroke-width="2" stroke-miterlimit="10" d="M11.682,12.355C13.795,8.569,17.904,6,22.627,6
			c6.883,0,12.461,5.453,12.461,12.182c0,0.944-0.109,1.864-0.317,2.746"/>
		<path fill="none" stroke="#323232" stroke-width="2" stroke-miterlimit="10" d="M22.049,31.751h-11.17
			C5.423,31.751,1,27.423,1,22.087c0-5.338,4.424-9.663,9.879-9.663c2.529,0,4.838,0.931,6.586,2.46"/>
		<path fill="none" stroke="#323232" stroke-width="2" stroke-miterlimit="10" d="M35.434,16.396
			c0.793-0.254,1.639-0.394,2.518-0.394c4.445,0,8.049,3.524,8.049,7.874s-3.604,7.874-8.049,7.874H27.855"/>
	</g>
</g>
</svg>
